<?xml version="1.0" encoding="utf-8"?>
<!-- Generator: Adobe Illustrator 27.3.1, SVG Export Plug-In . SVG Version: 6.00 Build 0)  -->
<svg version="1.1" id="Camada_1" xmlns="http://www.w3.org/2000/svg" xmlns:xlink="http://www.w3.org/1999/xlink" x="0px" y="0px"
	 viewBox="0 0 400 400" style="enable-background:new 0 0 400 400;" xml:space="preserve">
<style type="text/css">
	.st0{fill:#FFFFFF;}
</style>
<g id="Class_00000133499131805347275950000015628313979414911394_">
	<path class="st0" d="M354.6,255c3.9-13.9,5.8-28.4,5.8-42.9c0-36.4-12.6-72.1-35.5-100.5c-21.7-26.9-51.8-46.2-85-54.8
		c-5-17.6-21.1-30-39.8-30s-34.8,12.4-39.8,30c-33.2,8.5-63.3,27.9-85,54.8C52.5,140,39.8,175.7,39.8,212.1c0,14.5,2,28.9,5.8,42.8
		c-7.7,7.7-12.1,18.1-12.1,29.2c0,22.8,18.6,41.4,41.4,41.4c3.6,0,7.2-0.5,10.6-1.4c14.3,14.6,30.9,26.2,49.5,34.5
		c20.5,9.2,42.4,13.8,65.1,13.8c22.6,0,44.5-4.6,65-13.8c18.6-8.3,35.2-19.9,49.5-34.5c3.4,0.9,6.9,1.4,10.5,1.4
		c22.8,0,41.4-18.6,41.4-41.4C366.5,273.1,362.2,262.7,354.6,255z M325.2,319.1c-4.4,0-8.5-0.8-12.4-2.3
		C284.7,347,244.6,366,200.1,366s-84.6-19-112.7-49.2c-3.9,1.5-8.1,2.3-12.5,2.3c-19.3,0-35-15.7-35-35c0-11,5-20.7,12.9-27.1
		c-4.3-14.2-6.7-29.3-6.7-44.9c0-73,51.1-134.4,119.5-150c2.9-16.4,17.2-28.9,34.5-28.9s31.6,12.5,34.5,28.9
		c68.3,15.7,119.5,77,119.5,150c0,15.6-2.3,30.7-6.7,44.9c7.8,6.4,12.8,16.2,12.8,27.1C360.2,303.4,344.5,319.1,325.2,319.1z"/>
	<path class="st0" d="M234.2,131.9L224.9,93c-6.3,6.3-15.1,10.3-24.8,10.3c-9.5,0-18.1-3.8-24.4-9.9l-9.2,38.4
		c10.4-4.3,21.7-6.8,33.6-6.8C212.2,124.9,223.7,127.4,234.2,131.9z"/>
	<path class="st0" d="M311.8,136.6c-17.4-25.6-43.4-45-73.7-53.9l13,54.3L311.8,136.6z"/>
	<path class="st0" d="M284.9,191.9l28.4-40.1l-50,0.3C273.7,163.1,281.3,176.8,284.9,191.9z"/>
	<path class="st0" d="M75.2,161.3c-6.4,15.7-9.9,32.8-9.9,50.8c0,12.1,1.6,23.8,4.6,35l40.4-36.1L75.2,161.3z"/>
	<path class="st0" d="M217.1,345.9c30.1-3.8,57.1-17.5,77.6-37.8l-51.1-17.7L217.1,345.9z"/>
	<path class="st0" d="M105,307.6c22.2,22.1,52,36.5,85,39l-29.9-54.5L105,307.6z"/>
	<path class="st0" d="M290.3,210.7l40.2,35.9c2.9-11,4.5-22.6,4.5-34.5c0-17.9-3.5-35-9.9-50.6L290.3,210.7z"/>
	<path class="st0" d="M200.1,299.3c-6.9,0-13.5-0.8-19.9-2.3l23.2,42.3l20.8-43.4C216.5,298.1,208.5,299.3,200.1,299.3z"/>
	<path class="st0" d="M109.4,290.6l36.6-10.3c-16.2-12.9-27.7-31.4-31.6-52.6l-26.6,23.8c13,5.1,22.2,17.8,22.2,32.6
		C110,286.3,109.8,288.5,109.4,290.6z"/>
	<path class="st0" d="M128.2,212.1c0,39.7,32.3,71.9,71.9,71.9s71.9-32.3,71.9-71.9s-32.3-71.9-71.9-71.9S128.2,172.4,128.2,212.1z
		 M174.2,212.1c0-14.3,11.6-25.9,25.9-25.9s25.9,11.6,25.9,25.9S214.5,238,200.1,238S174.2,226.4,174.2,212.1z"/>
	<path class="st0" d="M162.6,82.5c-30.7,8.9-56.9,28.4-74.3,54.3l61.2,0.4L162.6,82.5z"/>
	<path class="st0" d="M256.3,278.7l34.5,11.9c-0.4-2.1-0.6-4.3-0.6-6.5c0-15,9.4-27.8,22.7-32.8l-26.9-24
		C282.3,247.8,271.6,265.8,256.3,278.7z"/>
	<path class="st0" d="M136.7,152.4l-49.4-0.3l28.1,39.7C119,176.8,126.5,163.3,136.7,152.4z"/>
</g>
</svg>
