<svg width="17" height="32" viewBox="0 0 17 32" fill="none" xmlns="http://www.w3.org/2000/svg">
<path d="M9.03178 2.09166C9.03178 1.61616 8.68864 1.22938 8.26671 1.22938C7.84491 1.22938 7.50164 1.61619 7.50164 2.09166C7.50164 2.56714 7.84478 2.95395 8.26671 2.95395C8.68851 2.95395 9.03178 2.56714 9.03178 2.09166ZM8.07164 2.09166C8.07164 1.91935 8.17444 1.79936 8.26672 1.79936C8.359 1.79936 8.46179 1.91935 8.46179 2.09166C8.46179 2.26397 8.359 2.38396 8.26672 2.38396C8.17444 2.38396 8.07164 2.26397 8.07164 2.09166ZM16.3366 11.0787L9.32026 8.78802L9.31036 8.34073H11.1472C11.4228 8.34073 11.6471 8.09692 11.6471 7.7972V7.07334C11.6471 6.77362 11.4229 6.52981 11.1472 6.52981H9.30406V3.35016C9.59153 3.0252 9.7542 2.57977 9.7542 2.10835C9.7542 1.15376 9.08686 0.377197 8.2666 0.377197C7.44634 0.377197 6.77899 1.15376 6.77899 2.10835C6.77899 2.5799 6.94178 3.02532 7.22914 3.35016V6.52981H5.38604C5.11032 6.52981 4.88606 6.77362 4.88606 7.07334V7.7972C4.88606 8.0968 5.11032 8.3406 5.38604 8.34073H7.22283L7.21294 8.78802L0.196555 11.0787C0.0792902 11.1169 0 11.2262 0 11.3496C0 13.9899 0.118873 17.4042 1.04611 20.3961C1.54967 22.021 2.25527 23.396 3.1433 24.4827C4.12534 25.6845 5.35822 26.57 6.80998 27.1172L6.77806 28.57C6.7772 28.607 6.78363 28.6439 6.79687 28.6784L8.00071 31.817C8.04301 31.9272 8.14878 31.9999 8.26678 31.9999C8.38479 31.9999 8.49067 31.9272 8.53285 31.817L9.73669 28.6784C9.74993 28.6439 9.75636 28.607 9.7555 28.57L9.72358 27.1172C11.1752 26.57 12.4081 25.6845 13.3903 24.4827C14.2783 23.3959 14.9839 22.021 15.4875 20.3961C16.4147 17.4042 16.5336 13.9899 16.5336 11.3496C16.5336 11.2262 16.4543 11.1169 16.337 11.0787H16.3366ZM7.71223 3.03121C7.4814 2.80818 7.34904 2.47185 7.34904 2.10841C7.34904 1.46815 7.76058 0.947261 8.26665 0.947261C8.77258 0.947261 9.18425 1.46815 9.18425 2.10841C9.18425 2.47185 9.05189 2.80831 8.82107 3.03121C8.76553 3.0849 8.73411 3.15887 8.73411 3.23618V6.52983H7.79931L7.79918 3.23618C7.79918 3.15887 7.76777 3.0849 7.71223 3.03121ZM5.45598 7.09975H11.0768V7.77057H9.01911H9.01874H7.51394H7.51357H5.45587L5.45598 7.09975ZM1.59043 20.2272C0.709713 17.3851 0.576459 14.1256 0.570158 11.5562L7.19989 9.39184L6.82322 26.5112C4.29878 25.4959 2.58495 23.436 1.59062 20.2272L1.59043 20.2272ZM8.26639 30.9188L7.34879 28.5263L7.38392 26.9303V26.9288L7.79286 8.34045H7.98138V27.988C7.98138 28.1454 8.10903 28.273 8.26638 28.273C8.42372 28.273 8.55138 28.1454 8.55138 27.988V8.34045H8.73989L9.14884 26.9288V26.9303L9.18397 28.5263L8.26639 30.9188ZM14.9424 20.2272C13.948 23.4359 12.2341 25.4959 9.70976 26.5111L9.33308 9.39178L15.9628 11.5561C15.9564 14.1259 15.8233 17.385 14.9425 20.2271L14.9424 20.2272Z" fill="white"/>
</svg>
