<svg width="100%" height="100%" viewBox="0 0 11 9" version="1.1" xmlns="http://www.w3.org/2000/svg" style="fill-rule:evenodd;clip-rule:evenodd;stroke-linejoin:round;stroke-miterlimit:2;"><path d="M2.17,2.546c-0.143,0.057 -0.3,0.087 -0.465,0.084c-2.11,-0.042 -1.933,-1.005 -1.214,-1.33c0.262,-0.118 0.564,0.035 0.647,-0.462c0.206,-1.249 1.901,-1.124 1.838,0.521c-0.01,0.255 -0.088,0.494 -0.217,0.694c0.56,0.374 1.248,0.875 1.944,1.414c0.234,-0.153 0.472,-0.301 0.709,-0.441c0.72,-0.427 1.426,-0.789 1.997,-1.039c-0.018,-0.153 -0.006,-0.312 0.04,-0.471c0.586,-2.027 1.471,-1.607 1.598,-0.828c0.046,0.284 -0.18,0.536 0.28,0.744c1.152,0.523 0.592,2.127 -0.98,1.64c-0.243,-0.075 -0.454,-0.212 -0.614,-0.388c-0.537,0.47 -1.25,1.044 -1.997,1.608c0.801,0.659 1.523,1.306 1.955,1.785c0.18,-0.102 0.388,-0.158 0.612,-0.154c2.11,0.042 1.933,1.005 1.214,1.33c-0.262,0.118 -0.564,-0.035 -0.646,0.463c-0.207,1.248 -1.902,1.123 -1.838,-0.522c0.006,-0.177 0.046,-0.347 0.113,-0.501c-0.771,-0.281 -1.657,-0.895 -2.494,-1.608c-0.791,0.559 -1.542,1.044 -2.083,1.321c0.052,0.2 0.053,0.416 -0.009,0.631c-0.587,2.027 -1.471,1.607 -1.599,0.828c-0.046,-0.283 0.18,-0.535 -0.279,-0.744c-1.153,-0.522 -0.593,-2.127 0.979,-1.64c0.17,0.052 0.323,0.135 0.455,0.239c0.357,-0.509 0.916,-1.033 1.559,-1.528c-0.592,-0.58 -1.119,-1.163 -1.505,-1.646Z" style="fill:#e9efec;"/></svg>