<?xml version="1.0" encoding="utf-8"?>
<!-- Generator: Adobe Illustrator 27.3.1, SVG Export Plug-In . SVG Version: 6.00 Build 0)  -->
<svg version="1.1" id="Camada_1" xmlns="http://www.w3.org/2000/svg" xmlns:xlink="http://www.w3.org/1999/xlink" x="0px" y="0px"
	 viewBox="0 0 400 400" style="enable-background:new 0 0 400 400;" xml:space="preserve">
<style type="text/css">
	.st0{fill:#FFFFFF;}
</style>
<g id="Eye_00000052079747681665089630000010768791399336222616_">
	<path class="st0" d="M331.7,225.3c-1.5-8.2-3.8-16.9-5.9-24.9C308.4,139.1,272.6,81.1,202,79.9c-56.2-0.6-101.8,32.8-121.9,84.6
		c-9.4,24.2-13.7,50.2-11.4,76l0.1,0.8v0.4v0.2c0,0.7,0,1.6,0.1,2.3c0.1,0.8,0.7,1.6,1,2.3l0.2,0.3l0.3,0.6l0.6,1.1
		c19.6,34.6,54.5,60.1,93.7,67.9c39.4,7.8,84.3-1,117.6-23.6c22.5-15.4,41.1-37.6,49.2-63.9l0.7-1.9
		C332.1,227.2,331.7,225.3,331.7,225.3z M268.9,271.9c-19.9,11.5-42.7,17.7-65.6,19.8c-43.7,4.8-86.8-14.3-117-45.6
		c-1.4-1.4-2.8-2.9-4.2-4.4c1.3-3,2.6-6,3.9-8.9c20.9-46.3,52.9-96.6,108.5-98c19.2-1,38.3,0.5,56.3,7.6
		c33.4,13.3,55.5,46.4,65.1,80c0.3,1,0.5,2,0.8,3.1C305.1,244.6,288.2,260.8,268.9,271.9z"/>
	<path class="st0" d="M230.3,213c-21.3-0.7-37.9-18.5-37.2-39.8c0.3-7.5,2.6-14.5,6.6-20.3c-29.4-0.1-53.7,23.1-54.7,52.7
		c-1,30.1,22.6,55.3,52.6,56.3c30.1,1,55.3-22.6,56.3-52.6c0-1.1,0-2.3,0-3.4C247.3,210.6,239.1,213.3,230.3,213z"/>
</g>
</svg>
