<svg width="25" height="25" viewBox="0 0 25 25" fill="none" xmlns="http://www.w3.org/2000/svg">
<path d="M12.5 18.3039C6.06252 18.3039 0.945017 12.9899 0.730225 12.7637C0.589925 12.6158 0.589925 12.3841 0.730225 12.2363C0.944913 12.01 6.06252 6.69604 12.5 6.69604C18.9375 6.69604 24.055 12.01 24.2698 12.2363C24.4101 12.3841 24.4101 12.6158 24.2698 12.7637C24.0551 12.9899 18.9375 18.3039 12.5 18.3039ZM1.55356 12.4999C2.6771 13.5717 7.19439 17.5376 12.5 17.5376C17.8056 17.5376 22.3229 13.5718 23.4465 12.4999C22.3229 11.4281 17.8056 7.46221 12.5 7.46221C7.19439 7.46221 2.6771 11.428 1.55356 12.4999Z" fill="white"/>
<path d="M12.5003 16.7229C10.1717 16.7229 8.27734 14.8286 8.27734 12.5C8.27734 10.1715 10.1718 8.2771 12.5003 8.2771C14.8287 8.2771 16.7232 10.1716 16.7232 12.5C16.7232 14.8285 14.8287 16.7229 12.5003 16.7229ZM12.5003 9.04314C10.5942 9.04314 9.04339 10.5938 9.04339 12.5C9.04339 14.4062 10.5941 15.9569 12.5003 15.9569C14.4064 15.9569 15.9571 14.4062 15.9571 12.5C15.9571 10.5938 14.4064 9.04314 12.5003 9.04314Z" fill="white"/>
<path d="M14.6324 12.8832C14.4208 12.8832 14.2494 12.7117 14.2494 12.5001C14.2494 11.5356 13.4648 10.751 12.5002 10.751C12.2887 10.751 12.1172 10.5795 12.1172 10.3679C12.1172 10.1563 12.2887 9.98486 12.5002 9.98486C13.8871 9.98486 15.0155 11.1132 15.0155 12.5001C15.0155 12.7117 14.844 12.8831 14.6324 12.8831L14.6324 12.8832Z" fill="white"/>
</svg>
