<?xml version="1.0" encoding="utf-8"?>
<!-- Generator: Adobe Illustrator 27.3.1, SVG Export Plug-In . SVG Version: 6.00 Build 0)  -->
<svg version="1.1" id="Camada_1" xmlns="http://www.w3.org/2000/svg" xmlns:xlink="http://www.w3.org/1999/xlink" x="0px" y="0px"
	 viewBox="0 0 400 400" style="enable-background:new 0 0 400 400;" xml:space="preserve">
<style type="text/css">
	.st0{fill:#FFFFFF;}
	.st1{display:none;fill:#FFFFFF;}
	.st2{display:none;}
	.st3{display:inline;fill:#FFFFFF;}
</style>
<g id="Gender_00000165232682253235988160000011842713818203663517_">
	<circle class="st0" cx="187.7" cy="219.8" r="20"/>
	<path class="st0" d="M125.2,219.8c0-18.2,7.8-34.6,20.2-46l-15.6-16.9c-17.5,16.1-27.6,39.1-27.6,62.9c0,30.2,16.2,58.5,42.3,73.8
		l11.7-19.8C137.6,262.9,125.2,242.8,125.2,219.8z"/>
	<path class="st0" d="M221.3,272.5l12.4,19.4c24.8-15.8,39.6-42.8,39.6-72.1h-23C250.2,242,238.7,261.4,221.3,272.5z"/>
	<path class="st0" d="M203.4,280.3c-5,1.3-10.3,2-15.8,2s-10.7-0.7-15.8-2v46.5h-22.1V353h22.1v22.8h31.5V353h22.1v-26.2h-22.1
		v-46.5H203.4z"/>
	<path class="st0" d="M160.1,92.8l-17.6,17.6l14.5,18.5l14.9-16.9v47.3c5-1.3,10.3-2,15.8-2s10.7,0.7,15.8,2V112l14.9,16.9
		l14.5-18.5l-17.6-17.6h18.2h5V74.6h-5h-18.2L232.9,57l-17.5-14.5l-11.9,12.9V29.8H172v25.6l-12-12.9L142.5,57l17.6,17.6h-14.2h-9
		v18.2h9H160.1z"/>
	<path class="st0" d="M333.8,118.4v-0.2l-76.6-12.6l-4.1,25.9l30.4,5.2L232,175.8c7.4,7.5,13,16.9,15.9,27.4l53.2-40.3l-4.6,29.3
		l25.9,3.8l11.7-77.5L333.8,118.4z"/>
</g>
<path id="Skin_Tone" class="st1" d="M302.6,118.1c-8.7,11.1-32.5,64.5-36,60.7c-0.2-0.3-0.3-0.1-0.6-0.3c-4-2.9,22.6-84.1,24-97.9
	c2-20-24-27-33-4c-8.5,21.6-26,89-31.7,90c-0.6,0.1-0.6,0.2-1.1-0.2c-2.2-1.7,2.8-93.7-2.2-123.7c-2.9-17.2-30.9-17.6-35,0
	c-3,13-1,127-5.4,127c-0.6,0-0.4,0.1-1.1,0.1c-4.6-0.1-14.6-68.1-24.6-95.1c-7-18.9-35-10.1-34,13c1,23,25,125,19,128
	c-4.8,2.4-24.6-26-35-33c-15-10-41,3-36,13c1.9,3.8,32.5,36.5,38,57c3.9,14.6,26,46.5,46,56.5v60.5h126l0.5-60.5
	c0,0,20.5-27.5,19.5-57.5c-0.8-25-1.3-47.7,1-54c5-14,17.3-39.7,27-60C338.1,116.6,317.1,99.6,302.6,118.1z"/>
<g id="Eye_00000052079747681665089630000010768791399336222616_" class="st2">
	<path class="st3" d="M331.7,225.3c-1.5-8.2-3.8-16.9-5.9-24.9C308.4,139.1,272.6,81.1,202,79.9c-56.2-0.6-101.8,32.8-121.9,84.6
		c-9.4,24.2-13.7,50.2-11.4,76l0.1,0.8v0.4v0.2c0,0.7,0,1.6,0.1,2.3c0.1,0.8,0.7,1.6,1,2.3l0.2,0.3l0.3,0.6l0.6,1.1
		c19.6,34.6,54.5,60.1,93.7,67.9c39.4,7.8,84.3-1,117.6-23.6c22.5-15.4,41.1-37.6,49.2-63.9l0.7-1.9
		C332.1,227.2,331.7,225.3,331.7,225.3z M268.9,271.9c-19.9,11.5-42.7,17.7-65.6,19.8c-43.7,4.8-86.8-14.3-117-45.6
		c-1.4-1.4-2.8-2.9-4.2-4.4c1.3-3,2.6-6,3.9-8.9c20.9-46.3,52.9-96.6,108.5-98c19.2-1,38.3,0.5,56.3,7.6
		c33.4,13.3,55.5,46.4,65.1,80c0.3,1,0.5,2,0.8,3.1C305.1,244.6,288.2,260.8,268.9,271.9z"/>
	<path class="st3" d="M230.3,213c-21.3-0.7-37.9-18.5-37.2-39.8c0.3-7.5,2.6-14.5,6.6-20.3c-29.4-0.1-53.7,23.1-54.7,52.7
		c-1,30.1,22.6,55.3,52.6,56.3c30.1,1,55.3-22.6,56.3-52.6c0-1.1,0-2.3,0-3.4C247.3,210.6,239.1,213.3,230.3,213z"/>
</g>
<path id="Mouth_00000173120166774553006760000005205269004049288360_" class="st1" d="M339.9,130.9c-6-3.7-14.3,0.2-15.3,7.2
	c-0.9,5.6,2.9,10.8,8.5,11.7c1,0.2,2.1,0.3,2.9,0.4c0.2,0,0.5,0.1,0.7,0.1c-45.9,11.9-100.3-8.7-102.3-8.7c0,0-22,22-31,22
	c-5,0-22-11-32-21c-40.9,24-87.3,21.6-111.1,18.1c0.9-0.5,1.8-1,2.8-1.4c3.1-1.2,6.4-2.1,9.6-1.8h0.1c0,0,0,0-0.1,0
	c5.5-0.4,9.7-5.1,9.3-10.6c-0.4-5.5-5.1-9.7-10.6-9.3c-1.8,0.2-3.5,0.8-5.2,1.3c-15.5,5.3-25.9,19.5-27.6,35.5
	c-0.7,5.2-0.6,10.3-0.1,15.2c0.1,1.3,1.1,2.3,2.4,2.5c1.6,0.2,3-0.9,3.2-2.4c0.8-5.9,2.5-12,5.4-17.3
	C69.9,202,127,272.6,205.3,269.7c2.1-0.1,4.2-0.2,6.2-0.4l-0.4-18.2l13.5-9c0,0,0,13.4,0,25.6c4.7-0.8,9.2-1.8,13.6-3.1l-0.5-26.1
	l13.5-9c0,0,0,17.6,0,30.7c4.7-1.9,9.3-3.9,13.6-6.2l-0.6-29.8l13.5-9c0,0,0,18.1,0,31.3c41.4-27.3,64-71,72.2-89.7
	c2.2,2.4,3.9,5.5,5,9.2c0.5,1.4,0.8,3.5,1.1,5c0.6,2.8,4.7,2.8,5.2-0.1l0.4-2.7C364.2,151,354.9,138,339.9,130.9z M348.3,156.4
	c-8.8,8.7-18.8,16.2-29.2,22.9c-55.8,35.5-122.1,40.5-185.4,25.3c-29.1-7.2-57.4-18.4-82.8-34.4c2.2-3.5,5-6.6,8.4-8.8
	c51.1,21.5,107.2,32.7,162.4,28.7c31.2-2.5,61.7-10.8,90.2-23.9c9.1-4.2,18-8.9,26.5-14c0.6-0.3,1.2-0.7,1.8-1.1
	c3.4,0.9,6.4,2.5,8.8,4.8C348.7,156,348.5,156.2,348.3,156.4z"/>
<g id="Hair_00000089563456372726118610000003595729480210153113_" class="st2">
	<path class="st3" d="M335.9,148.4c12.8-74.8-100.4-71.1-113.5-5.1c-4.5-3.3-8-5.4-8.9-6c-4.7-2.8-10.9-1.3-13.7,3.4
		s-1.3,10.9,3.4,13.7c5,3,19.2,12.8,24.6,21.7c1.9,3.1,5.2,4.8,8.5,4.8c1.8,0,3.6-0.5,5.2-1.5c4.7-2.9,6.2-9.1,3.3-13.8
		c-1.5-2.4-3.2-4.7-5.1-6.9c58.7-23.2,27.1,50.3,27.1,82.6c0,52,77,46,76,13C270.9,265.4,330.3,181,335.9,148.4z"/>
	<path class="st3" d="M135.9,155.4c-89,18-81.5,97.5-75,107c2.4,2,8.6-0.8,18-5c1-8.4,3.2-27.2,3.7-27.8c0.9-0.9,15.1-3.9,15.1-3
		c0.1,1.2-2.9,14.9-5.4,25c4.5-1.8,9.4-3.5,14.7-5.1c1-9,3-25.4,3.5-26c0.9-0.9,15.1-3.9,15.1-3c0.1,1.2-3,15.5-5.5,25.8
		c4.6-0.9,9.5-1.5,14.5-1.8c0.9-7.7,3.3-28.3,3.9-29c0.9-0.9,15.1-3.9,15.1-3c0.1,1.6-4.9,23.8-7.3,32.6c2.6,1.3,5.3,4.2,5.6,6.4
		c9.8,63.8,63.1,58.4,66.8,56.8c7-3-1-21,3-48c3.3-22.5,15-48.7,4-68C205.9,154.4,167.6,149,135.9,155.4z"/>
</g>
</svg>
