<svg width="25" height="35" viewBox="0 0 25 35" fill="none" xmlns="http://www.w3.org/2000/svg">
<path d="M17.7165 16.4695C17.716 16.4533 17.7155 16.4371 17.7151 16.4209C17.7137 16.3746 17.712 16.3286 17.7099 16.2823C17.709 16.265 17.7083 16.2476 17.7073 16.2302C17.705 16.1851 17.7019 16.1401 17.6986 16.095C17.6975 16.0778 17.6963 16.0607 17.6949 16.0436C17.6911 15.9971 17.6869 15.9503 17.6824 15.9038C17.681 15.8891 17.6798 15.8745 17.6782 15.8597C17.6723 15.8029 17.6658 15.7461 17.6587 15.6892C17.6582 15.6857 17.658 15.6822 17.6575 15.6789C17.6418 15.5552 17.6228 15.4319 17.6012 15.3091C17.5995 15.3004 17.5979 15.2917 17.5965 15.2833C17.5869 15.2304 17.5768 15.1776 17.5662 15.125C17.5646 15.1173 17.5629 15.1093 17.5613 15.1015C17.5498 15.0459 17.5378 14.9902 17.5249 14.9346C17.5244 14.9322 17.5237 14.9299 17.5232 14.9276C17.3927 14.3605 17.1966 13.8069 16.9367 13.2783L15.465 15.0074C15.6103 15.4819 15.6944 15.9832 15.7078 16.5021C15.7078 16.5054 15.7078 16.5087 15.7078 16.512C15.7087 16.5535 15.7092 16.5953 15.7094 16.6371C15.711 17.9231 15.2724 19.2159 14.3736 20.2718C14.1555 20.5282 13.9191 20.76 13.6681 20.9668C12.3757 22.0295 10.6939 22.4355 9.10261 22.1467V28.3903H6.36133V30.403H9.10261V34.724H11.1153V30.403H13.8566V28.3903H11.1153V24.1843C11.7692 24.0972 12.4126 23.926 13.0278 23.671C14.1083 23.2251 15.1015 22.5233 15.9099 21.5738L15.9064 21.5707C17.1224 20.1406 17.7176 18.3906 17.7186 16.6496C17.7186 16.6388 17.7181 16.628 17.7181 16.6172C17.7181 16.5679 17.7174 16.5186 17.7162 16.4692L17.7165 16.4695Z" fill="white"/>
<path d="M21.963 2.745L15.2858 3.28151L17.4532 5.12657L18.673 5.02866L14.2388 10.2377C11.0824 8.19939 6.81491 8.76432 4.31453 11.7017C3.50612 12.6514 2.97195 13.7439 2.70428 14.882C2.56786 15.4582 2.50023 16.0462 2.5 16.6329C2.5 16.6383 2.5 16.6435 2.5 16.6489C2.5 16.6515 2.5 16.6541 2.5 16.6566C2.5 16.7038 2.50071 16.7508 2.50165 16.798C2.50235 16.8379 2.50376 16.8778 2.50516 16.9177C2.50516 16.9196 2.50516 16.9213 2.50516 16.9231C2.612 19.9354 4.46926 22.5013 7.0908 23.6356V21.3547C6.88066 21.22 6.67685 21.0695 6.4815 20.903C4.75267 19.4313 4.14101 17.1272 4.73341 15.0755C4.73975 15.0534 4.74633 15.0316 4.7529 15.0098C4.75643 14.9978 4.76018 14.986 4.7637 14.9741C5.47585 12.6991 7.59985 11.0482 10.1096 11.0482C11.8568 11.0482 13.4168 11.8484 14.4438 13.102L20.2302 6.30456L20.3326 7.57788L22.5 9.42293L21.9635 2.7457L21.963 2.745Z" fill="white"/>
<path d="M2.50205 16.2215C2.50248 16.2364 2.50292 16.2514 2.50335 16.2663C2.50465 16.3088 2.50616 16.3512 2.5081 16.3938C2.50897 16.4098 2.50961 16.4258 2.51048 16.4418C2.51264 16.4833 2.51545 16.5247 2.51847 16.5662C2.51955 16.582 2.52063 16.5978 2.52193 16.6136C2.52539 16.6564 2.52928 16.6994 2.53338 16.7422C2.53468 16.7558 2.53576 16.7692 2.53727 16.7828C2.54267 16.8351 2.54872 16.8874 2.5552 16.9397C2.55563 16.9429 2.55585 16.9462 2.55628 16.9492C2.57076 17.0631 2.58826 17.1766 2.60813 17.2896C2.60965 17.2976 2.61116 17.3056 2.61246 17.3134C2.62131 17.362 2.6306 17.4106 2.64032 17.459C2.64184 17.4662 2.64335 17.4735 2.64486 17.4806C2.65545 17.5319 2.66647 17.5831 2.67835 17.6343C2.67878 17.6365 2.67943 17.6386 2.67986 17.6408C2.79999 18.1627 2.98039 18.6723 3.21955 19.1588L4.57375 17.5673C4.44002 17.1305 4.36267 16.6691 4.35036 16.1915C4.35036 16.1885 4.35036 16.1854 4.35036 16.1824C4.34949 16.1442 4.34906 16.1057 4.34885 16.0672C4.34733 14.8835 4.75092 13.6936 5.57795 12.7217C5.77866 12.4857 5.99622 12.2724 6.22718 12.082C7.41632 11.1038 8.96388 10.7302 10.4281 10.996L10.4281 4.78962L13.2407 4.78962L13.2407 4.0639L13.2407 3.39656L10.4281 3.39656L10.4281 -0.000111751L9.03156 -0.000111629L9.03156 3.39656L6.27384 3.39656L6.27384 4.0639L6.27384 4.78962L9.03156 4.78962L9.03156 9.14392C8.42986 9.2241 7.3824 9.35822 6.81635 9.59293C5.82209 10.0033 4.9082 10.6493 4.16434 11.5233L4.16758 11.5261C3.04866 12.8425 2.50097 14.4532 2.50011 16.0558C2.50011 16.0657 2.50054 16.0757 2.50054 16.0856C2.50054 16.131 2.50119 16.1764 2.50227 16.2217L2.50205 16.2215Z" fill="white"/>
<line x1="6.78004" y1="6.79994" x2="12.2955" y2="1.28449" stroke="white" stroke-width="2.11507"/>
<line x1="7.02172" y1="1.28383" x2="12.6301" y2="6.89217" stroke="white" stroke-width="2.11507"/>
</svg>
