<?xml version="1.0" encoding="utf-8"?>
<!-- Generator: Adobe Illustrator 27.3.1, SVG Export Plug-In . SVG Version: 6.00 Build 0)  -->
<svg version="1.1" id="Camada_1" xmlns="http://www.w3.org/2000/svg" xmlns:xlink="http://www.w3.org/1999/xlink" x="0px" y="0px"
	 viewBox="0 0 400 400" style="enable-background:new 0 0 400 400;" xml:space="preserve">
<style type="text/css">
	.st0{fill:#FFFFFF;}
</style>
<g id="Hair_00000089563456372726118610000003595729480210153113_">
	<path class="st0" d="M335.9,148.4c12.8-74.8-100.4-71.1-113.5-5.1c-4.5-3.3-8-5.4-8.9-6c-4.7-2.8-10.9-1.3-13.7,3.4
		s-1.3,10.9,3.4,13.7c5,3,19.2,12.8,24.6,21.7c1.9,3.1,5.2,4.8,8.5,4.8c1.8,0,3.6-0.5,5.2-1.5c4.7-2.9,6.2-9.1,3.3-13.8
		c-1.5-2.4-3.2-4.7-5.1-6.9c58.7-23.2,27.1,50.3,27.1,82.6c0,52,77,46,76,13C270.9,265.4,330.3,181,335.9,148.4z"/>
	<path class="st0" d="M135.9,155.4c-89,18-81.5,97.5-75,107c2.4,2,8.6-0.8,18-5c1-8.4,3.2-27.2,3.7-27.8c0.9-0.9,15.1-3.9,15.1-3
		c0.1,1.2-2.9,14.9-5.4,25c4.5-1.8,9.4-3.5,14.7-5.1c1-9,3-25.4,3.5-26c0.9-0.9,15.1-3.9,15.1-3c0.1,1.2-3,15.5-5.5,25.8
		c4.6-0.9,9.5-1.5,14.5-1.8c0.9-7.7,3.3-28.3,3.9-29c0.9-0.9,15.1-3.9,15.1-3c0.1,1.6-4.9,23.8-7.3,32.6c2.6,1.3,5.3,4.2,5.6,6.4
		c9.8,63.8,63.1,58.4,66.8,56.8c7-3-1-21,3-48c3.3-22.5,15-48.7,4-68C205.9,154.4,167.6,149,135.9,155.4z"/>
</g>
</svg>
