<svg width="25" height="15" viewBox="0 0 25 15" fill="none" xmlns="http://www.w3.org/2000/svg">
<path d="M7.44574 0.685851C6.74614 0.916969 6.40883 1.07313 5.72797 1.46041C4.22258 2.30992 1.6553 4.21508 0.468482 5.35193C-0.156161 5.94534 -0.156161 6.35761 0.468482 7.08219C0.687107 7.3258 1.15559 7.89423 1.52413 8.34397C2.27995 9.28093 3.14195 10.2117 3.84155 10.8613C6.0278 12.8851 8.58884 14.1282 11.2061 14.4342C12.1243 14.5467 13.6547 14.4842 14.5354 14.3093C16.9715 13.8283 19.3827 12.4916 21.494 10.4678C22.5434 9.45583 24.892 6.67617 24.9732 6.33887C25.0607 5.98907 24.942 5.73921 24.4985 5.30196C23.6177 4.45245 21.4128 2.76591 20.076 1.92264C17.7336 0.44224 16.4531 0.186137 14.9165 0.89823C14.6791 1.00442 14.1357 1.34173 13.7047 1.64155C13.2737 1.94763 12.8177 2.22247 12.6927 2.25995C12.3867 2.35365 12.2055 2.2662 11.2561 1.60408C10.8376 1.31049 10.3191 0.98568 10.1005 0.879491C9.22597 0.46098 8.32024 0.398516 7.44574 0.685851ZM9.56953 1.92889C9.7944 2.03508 10.3004 2.35365 10.6939 2.63474C11.0874 2.91582 11.5309 3.19691 11.6746 3.25938C12.5053 3.64041 13.1487 3.49674 14.2543 2.68471C15.2975 1.92264 15.8284 1.69153 16.5593 1.69153C17.0652 1.69153 17.4962 1.83519 18.3895 2.29743C19.7325 2.99078 23.3117 5.55806 23.3117 5.82666C23.3117 5.9391 19.9323 5.83915 18.5331 5.68924C12.7802 5.07084 12.3429 5.0646 8.16408 5.53308C5.80293 5.79543 4.99714 5.85789 3.25439 5.91411C2.38614 5.9391 1.86768 5.93285 1.79272 5.89537C1.69903 5.83915 1.74275 5.77669 2.17376 5.40815C3.4168 4.34626 5.42815 2.94081 6.59623 2.31617C7.56442 1.79771 7.93921 1.68528 8.60133 1.71026C9.07606 1.729 9.22597 1.76024 9.56953 1.92889ZM15.691 6.53251C18.402 6.73239 20.1885 6.91978 20.1885 7.00099C20.1885 7.02597 20.0011 7.13216 19.7699 7.23835C18.402 7.86299 16.1845 8.53761 14.348 8.88741C13.2862 9.08729 11.6683 9.08729 10.6002 8.88741C9.40087 8.66254 8.37021 8.39394 7.09594 7.96918C5.678 7.5007 4.7223 7.07595 4.91594 7.00099C5.11582 6.92603 8.27027 6.6262 10.85 6.43881C11.8307 6.3701 14.0857 6.41382 15.691 6.53251ZM3.3231 7.60064C5.88413 8.79996 7.33955 9.35589 8.98861 9.7744C11.1874 10.3241 12.9926 10.3803 15.1538 9.96179C17.0777 9.58701 18.8892 8.92489 21.8 7.53193C22.4309 7.23211 22.9619 7.00099 22.9806 7.01973C23.093 7.13841 20.7819 9.59326 19.72 10.4865C18.0772 11.867 15.9909 12.8726 14.0982 13.1974C13.4673 13.3036 13.1675 13.3161 12.193 13.2911C10.494 13.2474 9.4446 12.9913 7.89548 12.248C6.39634 11.5234 5.43439 10.8051 3.81657 9.19348C2.85462 8.23153 1.88642 7.14466 1.88642 7.02597C1.88642 6.94477 2.16126 7.05721 3.3231 7.60064Z" fill="white"/>
</svg>
