<?xml version="1.0" encoding="utf-8"?>
<!-- Generator: Adobe Illustrator 27.3.1, SVG Export Plug-In . SVG Version: 6.00 Build 0)  -->
<svg version="1.1" id="Camada_1" xmlns="http://www.w3.org/2000/svg" xmlns:xlink="http://www.w3.org/1999/xlink" x="0px" y="0px"
	 viewBox="0 0 400 400" style="enable-background:new 0 0 400 400;" xml:space="preserve">
<style type="text/css">
	.st0{fill:#FFFFFF;}
</style>
<path id="Mouth_00000173120166774553006760000005205269004049288360_" class="st0" d="M339.9,130.9c-6-3.7-14.3,0.2-15.3,7.2
	c-0.9,5.6,2.9,10.8,8.5,11.7c1,0.2,2.1,0.3,2.9,0.4c0.2,0,0.5,0.1,0.7,0.1c-45.9,11.9-100.3-8.7-102.3-8.7c0,0-22,22-31,22
	c-5,0-22-11-32-21c-40.9,24-87.3,21.6-111.1,18.1c0.9-0.5,1.8-1,2.8-1.4c3.1-1.2,6.4-2.1,9.6-1.8h0.1c0,0,0,0-0.1,0
	c5.5-0.4,9.7-5.1,9.3-10.6c-0.4-5.5-5.1-9.7-10.6-9.3c-1.8,0.2-3.5,0.8-5.2,1.3c-15.5,5.3-25.9,19.5-27.6,35.5
	c-0.7,5.2-0.6,10.3-0.1,15.2c0.1,1.3,1.1,2.3,2.4,2.5c1.6,0.2,3-0.9,3.2-2.4c0.8-5.9,2.5-12,5.4-17.3
	C69.9,202,127,272.6,205.3,269.7c2.1-0.1,4.2-0.2,6.2-0.4l-0.4-18.2l13.5-9c0,0,0,13.4,0,25.6c4.7-0.8,9.2-1.8,13.6-3.1l-0.5-26.1
	l13.5-9c0,0,0,17.6,0,30.7c4.7-1.9,9.3-3.9,13.6-6.2l-0.6-29.8l13.5-9c0,0,0,18.1,0,31.3c41.4-27.3,64-71,72.2-89.7
	c2.2,2.4,3.9,5.5,5,9.2c0.5,1.4,0.8,3.5,1.1,5c0.6,2.8,4.7,2.8,5.2-0.1l0.4-2.7C364.2,151,354.9,138,339.9,130.9z M348.3,156.4
	c-8.8,8.7-18.8,16.2-29.2,22.9c-55.8,35.5-122.1,40.5-185.4,25.3c-29.1-7.2-57.4-18.4-82.8-34.4c2.2-3.5,5-6.6,8.4-8.8
	c51.1,21.5,107.2,32.7,162.4,28.7c31.2-2.5,61.7-10.8,90.2-23.9c9.1-4.2,18-8.9,26.5-14c0.6-0.3,1.2-0.7,1.8-1.1
	c3.4,0.9,6.4,2.5,8.8,4.8C348.7,156,348.5,156.2,348.3,156.4z"/>
</svg>
