<svg width="110" height="142" viewBox="0 0 110 142" fill="none" xmlns="http://www.w3.org/2000/svg" xmlns:xlink="http://www.w3.org/1999/xlink">
<rect x="28.0889" y="29.7251" width="53.8222" height="60.55" fill="url(#pattern0)"/>
<path d="M14 112.275V109.025H27V107.4H15.625V105.775H14V100.9H15.625V99.2751H31.875V102.525H18.875V104.15H30.25V105.775H31.875V110.65H30.25V112.275H14ZM34.8 112.275V109.025H36.425V105.775H38.05V102.525H39.675V99.2751H47.8V102.525H49.425V105.775H51.05V109.025H52.675V112.275H47.8V110.65H39.675V112.275H34.8ZM42.925 102.525V105.775H41.3V107.4H46.175V105.775H44.55V102.525H42.925ZM57.225 112.275V110.65H55.6V100.9H57.225V99.2751H73.475V102.525H60.475V109.025H68.6V107.4H63.725V104.15H73.475V110.65H71.85V112.275H57.225ZM76.4 112.275V99.2751H94.275V102.525H81.275V104.15H92.65V107.4H81.275V109.025H94.275V112.275H76.4Z" fill="white"/>
</svg>
