<svg width="25" height="24" viewBox="0 0 25 24" fill="none" xmlns="http://www.w3.org/2000/svg">
<path d="M12.4293 1.0047L12.4319 1.00297C12.5264 0.938498 12.6709 0.9111 12.8248 0.948057C12.9718 0.983364 13.0669 1.06196 13.1093 1.13519C13.1097 1.13649 13.1103 1.13834 13.111 1.14077C13.1155 1.15481 13.1261 1.18837 13.1425 1.24949C13.1662 1.3378 13.1947 1.45557 13.2262 1.59605C13.2888 1.87571 13.3601 2.2316 13.4244 2.59595C13.5515 3.35788 13.8032 4.50547 13.9832 5.16552L13.9839 5.16798C14.4519 6.85267 14.4963 7.11467 14.6238 8.36147C14.7117 9.28024 14.8035 9.97311 14.9066 10.4437C14.9572 10.6744 15.0175 10.8855 15.0974 11.0505C15.137 11.1324 15.1961 11.2339 15.2859 11.3215C15.3808 11.4142 15.5371 11.515 15.7475 11.515C16.1477 11.515 16.3032 11.1732 16.3379 11.0853C16.3892 10.955 16.4108 10.8082 16.4219 10.6798C16.445 10.411 16.4347 10.0463 16.3972 9.61209C16.3632 9.21684 16.3336 7.36993 16.3262 5.48165V2.27847L16.4083 2.18548C16.4085 2.18527 16.4087 2.18507 16.4088 2.18486C16.5174 2.06281 16.5947 2.01362 16.6564 1.98927C16.7181 1.96496 16.8105 1.94716 16.9788 1.9633C17.196 1.98581 17.3282 2.10656 17.3766 2.27681C17.3771 2.27949 17.379 2.28831 17.382 2.30535C17.3861 2.32833 17.3909 2.35895 17.3963 2.39734C17.4073 2.47404 17.4196 2.57329 17.4325 2.68907C17.4581 2.92028 17.4849 3.20765 17.5064 3.49379L17.5065 3.49463C17.7467 6.63214 17.782 7.52621 17.7459 9.57612C17.7277 10.523 17.72 11.0841 17.7305 11.4335C17.7409 11.7782 17.7687 12.0008 17.876 12.2154L17.8817 12.2267L17.8818 12.2266C17.9429 12.342 18.0237 12.4457 18.1037 12.5271C18.1717 12.5963 18.2913 12.7038 18.4459 12.76L18.4599 12.7651L18.4743 12.7694C18.5821 12.802 18.7793 12.8505 18.9976 12.7799C19.2313 12.7043 19.3701 12.5338 19.4532 12.3921C19.5336 12.2547 19.5956 12.0865 19.6515 11.909C19.7092 11.7255 19.771 11.4964 19.8423 11.2186M12.4293 1.0047L19.3174 11.0823M12.4293 1.0047C12.1816 1.17152 12.0919 1.377 12.0919 1.5113C12.0919 1.50833 12.0924 1.5274 12.097 1.58452C12.1011 1.63513 12.1073 1.70246 12.1156 1.78555C12.1322 1.95141 12.1561 2.17253 12.1857 2.43332C12.2447 2.95447 12.3253 3.62782 12.4109 4.32123C12.5824 5.70989 12.7719 7.15786 12.8504 7.6305M12.4293 1.0047L12.8504 7.6305M19.8423 11.2186C19.8424 11.2181 19.8425 11.2176 19.8427 11.217L19.3174 11.0823M19.8423 11.2186C19.8422 11.2191 19.842 11.2195 19.8419 11.2199L19.3174 11.0823M19.8423 11.2186C19.9937 10.6419 20.237 9.82068 20.3897 9.39731L20.3914 9.39248L20.3914 9.39247C20.556 8.92209 20.8245 7.88828 20.9875 7.09589C21.067 6.7091 21.1479 6.34065 21.2147 6.06009C21.2482 5.91927 21.2773 5.80454 21.3001 5.72221C21.3106 5.68447 21.3187 5.65745 21.3244 5.63977M19.3174 11.0823C19.4707 10.4982 19.719 9.65867 19.8796 9.21334C20.0329 8.77531 20.2957 7.76784 20.4563 6.98668C20.6169 6.20553 20.7848 5.49008 20.8359 5.40247C21.1718 4.77463 21.9967 4.73812 22.369 5.33677C22.5151 5.57038 22.5224 5.65069 22.4712 6.62166C22.4128 8.00145 22.296 8.6877 21.7558 10.9728L21.3032 12.9074L21.3324 14.185C21.4273 17.5651 21.3397 18.7332 20.8943 20.5145C20.5293 21.9673 20.1132 22.6098 19.2517 23.0697M21.3244 5.63977C21.3209 5.64576 21.3175 5.65191 21.3141 5.65823L21.3094 5.66706L21.3043 5.6757C21.3079 5.66954 21.3111 5.66365 21.314 5.65819C21.3215 5.6438 21.3265 5.63229 21.3291 5.62606M21.3244 5.63977C21.325 5.63798 21.3256 5.63629 21.3261 5.63469C21.3273 5.63105 21.3283 5.6282 21.3291 5.62606M21.3244 5.63977C21.4025 5.50713 21.5149 5.45566 21.6123 5.45144C21.7127 5.44709 21.8265 5.49112 21.9086 5.62315L21.9092 5.62416C21.9402 5.67371 21.9442 5.68477 21.9448 5.68651L21.9448 5.68662L21.9448 5.68664C21.945 5.687 21.9459 5.68955 21.9474 5.69666C21.949 5.70477 21.9514 5.72 21.9535 5.74606C21.9636 5.87199 21.9562 6.09128 21.9297 6.59316L21.9294 6.59872L21.9295 6.59872C21.8732 7.92765 21.7655 8.57502 21.2281 10.848L21.2278 10.8492L20.7752 12.7839L20.7595 12.8509L20.761 12.9198L20.7903 14.1974L20.7903 14.2002C20.8847 17.5625 20.7958 18.6728 20.3684 20.3824M21.3291 5.62606C21.3302 5.62278 21.3309 5.62117 21.331 5.62099C21.3311 5.62078 21.3305 5.62261 21.3291 5.62606ZM20.3684 20.3824L20.8941 20.5145L20.3683 20.383C20.3683 20.3828 20.3684 20.3826 20.3684 20.3824ZM20.3684 20.3824C20.1914 21.0871 20.0135 21.5444 19.8033 21.8709C19.6032 22.1816 19.3585 22.3976 18.9989 22.59M18.9989 22.59C18.9998 22.5895 19.0007 22.5891 19.0016 22.5886L19.2517 23.0697M18.9989 22.59C18.9981 22.5904 18.9972 22.5909 18.9963 22.5914L19.2517 23.0697M18.9989 22.59C18.5326 22.832 18.0252 22.9707 17.28 23.0251M19.2517 23.0697C18.7042 23.3544 18.1201 23.5077 17.3171 23.5661M17.3171 23.5661L17.2825 23.025C17.2817 23.025 17.2809 23.0251 17.28 23.0251M17.3171 23.5661L17.2778 23.0253C17.2785 23.0253 17.2793 23.0252 17.28 23.0251M17.3171 23.5661L12.8511 7.63489C12.8509 7.63343 12.8506 7.63197 12.8504 7.6305M17.28 23.0251C16.9022 23.0495 16.3216 23.142 15.9632 23.2183L15.9578 23.2194L15.9578 23.2194C14.574 23.5285 13.1931 23.5294 12.3194 23.266L12.3072 23.2623L12.3072 23.2623C12.3035 23.261 12.2929 23.2572 12.2738 23.2492C12.2467 23.2378 12.211 23.2215 12.1665 23.1996C12.0774 23.1559 11.9646 23.0957 11.8335 23.0214C11.5717 22.873 11.2518 22.677 10.9283 22.4637L10.927 22.4628C10.2851 22.0423 9.4929 21.5704 9.16871 21.4044L9.15929 21.3996L9.15924 21.3997C8.89636 21.2714 8.11329 20.7938 7.43367 20.3408L7.43145 20.3393L7.43144 20.3393C7.08432 20.1103 6.74725 19.8955 6.48334 19.7332C6.35176 19.6523 6.23559 19.5828 6.14415 19.5305C6.09875 19.5046 6.05589 19.4809 6.01842 19.4616L6.01788 19.4613C5.99284 19.4484 5.93266 19.4173 5.86875 19.3976L5.85944 19.3947L5.85941 19.3948C5.7279 19.3569 5.40176 19.1906 4.96039 18.913C4.5409 18.6491 4.07403 18.3214 3.68217 18.0101C3.25615 17.6683 3.07792 17.3232 3.04733 17.0937C3.03282 16.9849 3.05103 16.9084 3.0796 16.8545C3.10735 16.8023 3.16221 16.7385 3.27765 16.6823C3.44847 16.6032 3.83556 16.5821 4.54478 16.8244C5.22657 17.0573 6.09564 17.4952 7.13665 18.1485C7.58183 18.4281 7.96967 18.6342 8.32865 18.7106C8.74008 18.7981 9.08674 18.7114 9.40018 18.4964C9.64083 18.3362 9.82016 18.0927 9.9492 17.849C10.0831 17.5959 10.1845 17.302 10.2481 16.9968L10.2488 16.9935L10.2488 16.9935C10.5862 15.3218 10.5469 13.6 10.1427 11.8919L10.1423 11.8901C9.29866 8.37728 9.23971 8.02028 9.0604 5.84702L9.06032 5.84604C9.00917 5.23956 8.98318 4.85679 8.97722 4.59788C8.97131 4.34132 8.98662 4.24361 8.99985 4.19263C9.05417 3.9962 9.14948 3.8831 9.23933 3.82458C9.32667 3.7677 9.44558 3.73773 9.60318 3.77164L9.60555 3.77215C9.60375 3.77177 9.62557 3.77704 9.66828 3.80136C9.70834 3.82418 9.75282 3.85584 9.79488 3.89275C9.8374 3.93006 9.86904 3.96536 9.88822 3.9916C9.89111 3.99555 9.89345 3.99892 9.89531 4.00172C10.2875 5.75644 10.7279 7.46384 10.9722 8.15883C11.1229 8.59048 11.3435 9.42056 11.4646 9.9904C11.5287 10.2921 11.6059 10.6104 11.6798 10.8823C11.75 11.1407 11.8272 11.3951 11.8944 11.545L11.8963 11.5491L11.8963 11.5491C11.9365 11.6368 11.9762 11.7211 12.0158 11.7929C12.0533 11.861 12.1098 11.9539 12.1943 12.0355C12.294 12.1317 12.4164 12.1971 12.557 12.223C12.6739 12.2445 12.7791 12.2331 12.8335 12.2266C12.9886 12.2084 13.2283 12.1508 13.4048 11.9313C13.5693 11.7269 13.5955 11.4824 13.5949 11.3013C13.5938 10.9455 13.4766 10.4069 13.2887 9.64086M13.2887 9.64086C13.2885 9.64023 13.2884 9.63959 13.2882 9.63895L12.7616 9.76818L13.2891 9.64258C13.2889 9.642 13.2888 9.64143 13.2887 9.64086ZM13.2887 9.64086C13.1082 8.88256 12.9145 7.97837 12.8504 7.6305" stroke="white" stroke-width="1.08452"/>
</svg>
