<?xml version="1.0" encoding="utf-8"?>
<!-- Generator: Adobe Illustrator 27.3.1, SVG Export Plug-In . SVG Version: 6.00 Build 0)  -->
<svg version="1.1" id="Camada_1" xmlns="http://www.w3.org/2000/svg" xmlns:xlink="http://www.w3.org/1999/xlink" x="0px" y="0px"
	 viewBox="0 0 400 400" style="enable-background:new 0 0 400 400;" xml:space="preserve">
<style type="text/css">
	.st0{fill:#FFFFFF;}
</style>
<path id="Skin_Tone" class="st0" d="M302.6,118.1c-8.7,11.1-32.5,64.5-36,60.7c-0.2-0.3-0.3-0.1-0.6-0.3c-4-2.9,22.6-84.1,24-97.9
	c2-20-24-27-33-4c-8.5,21.6-26,89-31.7,90c-0.6,0.1-0.6,0.2-1.1-0.2c-2.2-1.7,2.8-93.7-2.2-123.7c-2.9-17.2-30.9-17.6-35,0
	c-3,13-1,127-5.4,127c-0.6,0-0.4,0.1-1.1,0.1c-4.6-0.1-14.6-68.1-24.6-95.1c-7-18.9-35-10.1-34,13c1,23,25,125,19,128
	c-4.8,2.4-24.6-26-35-33c-15-10-41,3-36,13c1.9,3.8,32.5,36.5,38,57c3.9,14.6,26,46.5,46,56.5v60.5h126l0.5-60.5
	c0,0,20.5-27.5,19.5-57.5c-0.8-25-1.3-47.7,1-54c5-14,17.3-39.7,27-60C338.1,116.6,317.1,99.6,302.6,118.1z"/>
</svg>
